# xmcd CD database file
#
# Track frame offsets:
#	183
#	13555
#	25920
#	39810
#	52503
#	66158
#	85093
#	94908
#	113698
#	127883
#	145563
#	166995
#	190908
#	203208
#	215493
#	235500
#	261428
#	273523
#
# Disc length: 3822 seconds
#
# Revision: 0
# Processed by: cddbd v1.5.2PL0 Copyright (c) Steve Scherf et al.
# Submitted via: CDex 1.50
#
DISCID=e70eec12
DTITLE=Sarah Vaughan - The Story
DYEAR=1991
DGENRE=Jazz
TTITLE0=A hundred years from today
TTITLE1=Motherless child
TTITLE2=September song
TTITLE3=What a difference a day makes
TTITLE4=Embacable you
TTITLE5=Scat blues
TTITLE6=Day in day out
TTITLE7=Fly me to the moon
TTITLE8=Honeysuckle Rose
TTITLE9=Over the rainbow
TTITLE10=Sassy's Blues
TTITLE11=Misty
TTITLE12=Green dolphin street
TTITLE13=I can't give you anything but love
TTITLE14=Sometimes I'm happy
TTITLE15=Maria
TTITLE16=Tenderly
TTITLE17=Bill Bailey won't you please come home
EXTD=YEAR: 1991
EXTT0=
EXTT1=
EXTT2=
EXTT3=
EXTT4=
EXTT5=
EXTT6=
EXTT7=
EXTT8=
EXTT9=
EXTT10=
EXTT11=
EXTT12=
EXTT13=
EXTT14=
EXTT15=
EXTT16=
EXTT17=
PLAYORDER=
